<svg width="20" height="21" viewBox="0 0 20 21" fill="none" xmlns="http://www.w3.org/2000/svg">
<path d="M10 20.5361C8.61667 20.5361 7.31667 20.2736 6.1 19.7486C4.88333 19.2236 3.825 18.5111 2.925 17.6111C2.025 16.7111 1.3125 15.6528 0.7875 14.4361C0.2625 13.2195 0 11.9195 0 10.5361C0 9.1528 0.2625 7.8528 0.7875 6.63613C1.3125 5.41947 2.025 4.36113 2.925 3.46113C3.825 2.56113 4.88333 1.84863 6.1 1.32363C7.31667 0.798633 8.61667 0.536133 10 0.536133C11.3833 0.536133 12.6833 0.798633 13.9 1.32363C15.1167 1.84863 16.175 2.56113 17.075 3.46113C17.975 4.36113 18.6875 5.41947 19.2125 6.63613C19.7375 7.8528 20 9.1528 20 10.5361C20 11.9195 19.7375 13.2195 19.2125 14.4361C18.6875 15.6528 17.975 16.7111 17.075 17.6111C16.175 18.5111 15.1167 19.2236 13.9 19.7486C12.6833 20.2736 11.3833 20.5361 10 20.5361ZM10 18.5361C12.2333 18.5361 14.125 17.7611 15.675 16.2111C17.225 14.6611 18 12.7695 18 10.5361H10V2.53613C7.76667 2.53613 5.875 3.31113 4.325 4.86113C2.775 6.41113 2 8.3028 2 10.5361C2 12.7695 2.775 14.6611 4.325 16.2111C5.875 17.7611 7.76667 18.5361 10 18.5361Z" fill="#838383"/>
</svg>
