<svg width="18" height="23" viewBox="0 0 18 23" fill="none" xmlns="http://www.w3.org/2000/svg">
<path d="M11.516 4.8532C12.6451 4.8532 13.5688 3.92775 13.5688 2.79666C13.5688 1.66556 12.6451 0.740112 11.516 0.740112C10.387 0.740112 9.46322 1.66556 9.46322 2.79666C9.46322 3.92775 10.387 4.8532 11.516 4.8532ZM8.26233 17.1925L8.84738 14.6218L11.0028 16.6783V21.8197C11.0028 22.3852 11.4647 22.848 12.0292 22.848C12.5938 22.848 13.0556 22.3852 13.0556 21.8197V16.0202C13.0556 15.4547 12.8298 14.92 12.4193 14.5292L10.9002 13.0794L11.516 9.99456C12.6727 11.3193 14.2561 12.1961 15.9912 12.4727C16.607 12.5652 17.1613 12.0717 17.1613 11.4444C17.1613 10.9406 16.7917 10.519 16.2888 10.4367C14.7287 10.1796 13.4354 9.2542 12.7477 8.04084L11.7213 6.39561C11.3108 5.77864 10.6949 5.36733 9.97643 5.36733C9.6685 5.36733 9.46322 5.47016 9.1553 5.47016L5.07021 7.19766C4.69836 7.35689 4.38142 7.6221 4.15879 7.96031C3.93615 8.29852 3.81765 8.69483 3.818 9.09996V11.537C3.818 12.1025 4.27988 12.5652 4.84441 12.5652C5.40893 12.5652 5.87081 12.1025 5.87081 11.537V9.06911L7.71834 8.34932L6.07609 16.6783L2.05259 15.8557C1.49833 15.7426 0.954333 16.1025 0.841428 16.6578V16.6989C0.728524 17.2542 1.08777 17.7991 1.64202 17.9123L5.86055 18.7554C6.38524 18.8598 6.92986 18.7548 7.37846 18.4629C7.82705 18.1709 8.14418 17.7151 8.26233 17.1925Z" fill="white"/>
</svg>
