<svg width="17" height="23" viewBox="0 0 17 23" fill="none" xmlns="http://www.w3.org/2000/svg">
<path d="M12.0967 6.74733C7.18622 3.48868 9.40837 0.317993 9.40837 0.317993C4.63477 3.06654 3.57805 7.26166 4.74743 12.5657C3.02755 11.1713 2.77842 9.51984 2.83474 7.34196C0.6448 9.68459 0.251012 12.1638 0.395669 14.8482C0.534133 17.6071 2.09144 20.0972 4.51143 21.4294C6.9312 22.7613 9.86832 22.7451 12.2738 21.3863C14.6787 20.0274 16.2085 17.5199 16.3162 14.7596C16.4849 11.2517 14.9983 8.67195 12.0969 6.7475L12.0967 6.74733ZM8.88198 20.5701C7.78522 20.574 6.71228 20.2508 5.80021 19.6417C6.01715 19.663 6.2341 19.674 6.45104 19.674C8.33179 19.6656 10.1329 18.9132 11.4609 17.5816C12.789 16.2497 13.5362 14.4466 13.5393 12.5658C13.5393 12.3489 13.5286 12.1319 13.5071 11.915V11.9147C14.1167 12.8198 14.4438 13.8855 14.4474 14.9766C14.4494 16.458 13.863 17.8796 12.8172 18.9284C11.7712 19.9775 10.3512 20.5681 8.86986 20.5701H8.88198Z" fill="white"/>
</svg>
