<svg width="18" height="19" viewBox="0 0 18 19" fill="none" xmlns="http://www.w3.org/2000/svg">
<path d="M2 18.5361C1.45 18.5361 0.979167 18.3403 0.5875 17.9486C0.195833 17.557 0 17.0861 0 16.5361V2.53613C0 1.98613 0.195833 1.5153 0.5875 1.12363C0.979167 0.731966 1.45 0.536133 2 0.536133H16C16.55 0.536133 17.0208 0.731966 17.4125 1.12363C17.8042 1.5153 18 1.98613 18 2.53613V16.5361C18 17.0861 17.8042 17.557 17.4125 17.9486C17.0208 18.3403 16.55 18.5361 16 18.5361H2ZM2 16.5361H8V2.53613H2V16.5361ZM10 16.5361H16V9.53613H10V16.5361ZM10 7.53613H16V2.53613H10V7.53613Z" fill="#838383"/>
</svg>
