<svg width="54" height="40" viewBox="0 0 54 40" fill="none" xmlns="http://www.w3.org/2000/svg">
<path d="M33.667 0.5C34.5095 0.500063 35.2744 0.746404 35.9453 1.23828C36.5198 1.65955 36.9644 2.18518 37.2725 2.81055L37.3955 3.08496L37.4004 3.09668L42.6445 16.833H52.833V22.5H38.6875L38.5654 22.1768L33.665 9.17871L23.4004 36.2354L23.3955 36.249C23.0879 36.9959 22.6017 37.6134 21.9453 38.0947C21.2744 38.5867 20.5096 38.8329 19.667 38.833C18.8242 38.833 18.0587 38.5868 17.3877 38.0947C16.7313 37.6134 16.2451 36.996 15.9375 36.249L15.9326 36.2363L10.6895 22.5H0.5V16.833H14.6455L14.7676 17.1572L19.668 30.1533L29.9326 3.09766L29.9375 3.08496L30.0615 2.81055C30.3696 2.18529 30.8133 1.65949 31.3877 1.23828C32.0587 0.746237 32.8243 0.5 33.667 0.5Z" fill="#214984" stroke="white"/>
</svg>
