<svg width="23" height="21" viewBox="0 0 23 21" fill="none" xmlns="http://www.w3.org/2000/svg">
<path d="M18.089 1.18501C15.7276 0.23129 13.1539 0.679141 11.3252 2.13634C9.50209 0.654126 6.91929 0.182855 4.54168 1.12731C1.07437 2.50495 -0.6447 6.3709 0.702832 9.76252C0.773884 9.94001 0.859569 10.1337 0.958558 10.3381H5.09911L8.09862 5.55624C8.1718 5.43942 8.30086 5.38008 8.42966 5.38966C8.60475 5.35906 8.77878 5.46257 8.8328 5.6366L11.8813 15.5123L14.57 11.223C14.6387 11.1142 14.7558 11.0548 14.8768 11.0548H14.8848H21.2841C21.5343 10.6072 21.7362 10.1972 21.8791 9.8406C23.2458 6.45709 21.5478 2.58214 18.089 1.18494L18.089 1.18501Z" fill="white"/>
<path d="M18.5044 11.7711H15.0717L12.0927 16.5229C12.0512 16.6094 11.9756 16.6794 11.8769 16.7092C11.6879 16.7688 11.4873 16.6624 11.4293 16.4732L8.35151 6.50208L5.60187 10.8872C5.53322 10.996 5.41534 11.0554 5.29559 11.0543C5.29213 11.0543 5.28974 11.0551 5.28707 11.0551L1.33276 11.0548C3.14442 14.3056 7.39915 19.4584 10.5327 20.22C13.4617 21.2065 18.516 15.5827 20.8621 11.7715L18.5044 11.7711Z" fill="white"/>
</svg>
