<svg width="17" height="23" viewBox="0 0 17 23" fill="none" xmlns="http://www.w3.org/2000/svg">
<path d="M14.4017 9.14904L8.21148 0.534424L1.70937 9.93506C1.01447 10.9094 0.543961 12.0254 0.331645 13.2031C0.119294 14.381 0.170339 15.5911 0.481079 16.7468C0.857049 18.1518 1.61194 19.4267 2.66334 20.4317C3.71477 21.4367 5.02234 22.1335 6.44293 22.4458C7.02354 22.5753 7.61663 22.6412 8.21145 22.6422C9.62218 22.6456 11.0087 22.2771 12.2312 21.5736C13.4539 20.8699 14.4694 19.8562 15.1751 18.635C15.8809 17.4136 16.2521 16.0277 16.2513 14.6169C16.2513 12.9318 15.6445 11.1141 14.4016 9.1491L14.4017 9.14904ZM8.78156 19.6946C8.48932 19.6946 8.2193 19.5386 8.07311 19.2856C7.92707 19.0325 7.92707 18.7207 8.07311 18.4676C8.21931 18.2146 8.48934 18.0587 8.78156 18.0587C9.51282 18.0573 10.2139 17.7668 10.7316 17.2504C11.2494 16.734 11.5418 16.0337 11.5451 15.3024C11.5451 15.0102 11.701 14.7402 11.954 14.5941C12.2071 14.4479 12.5189 14.4479 12.772 14.5941C13.0252 14.7402 13.1811 15.0102 13.1811 15.3024C13.1778 16.4677 12.7131 17.584 11.8885 18.4072C11.0639 19.2304 9.94661 19.6933 8.78156 19.6946Z" fill="white"/>
</svg>
