<svg width="271" height="56" viewBox="0 0 271 56" fill="none" xmlns="http://www.w3.org/2000/svg">
<path d="M72.52 47.6C70.2 47.6 68.16 47.1333 66.4 46.2C64.64 45.2533 63.2667 43.9267 62.28 42.22C61.2933 40.5133 60.8 38.5067 60.8 36.2V18.24L66.32 18.2V36.16C66.32 37.1067 66.48 37.9667 66.8 38.74C67.12 39.5133 67.56 40.18 68.12 40.74C68.6933 41.3 69.3533 41.7333 70.1 42.04C70.86 42.3333 71.6667 42.48 72.52 42.48C73.4 42.48 74.2133 42.3267 74.96 42.02C75.72 41.7133 76.38 41.28 76.94 40.72C77.5 40.16 77.9333 39.4933 78.24 38.72C78.56 37.9467 78.72 37.0933 78.72 36.16V18.2H84.24V36.2C84.24 38.5067 83.7467 40.5133 82.76 42.22C81.7733 43.9267 80.4 45.2533 78.64 46.2C76.88 47.1333 74.84 47.6 72.52 47.6ZM101.383 47.6C98.5034 47.6 96.0168 46.9733 93.9234 45.72C91.8434 44.4667 90.2368 42.7133 89.1034 40.46C87.9834 38.2067 87.4234 35.5867 87.4234 32.6C87.4234 29.6133 87.9834 26.9933 89.1034 24.74C90.2368 22.4867 91.8434 20.7333 93.9234 19.48C96.0168 18.2267 98.5034 17.6 101.383 17.6C104.69 17.6 107.463 18.42 109.703 20.06C111.957 21.7 113.543 23.92 114.463 26.72L108.983 28.24C108.45 26.4933 107.55 25.14 106.283 24.18C105.017 23.2067 103.383 22.72 101.383 22.72C99.5568 22.72 98.0301 23.1267 96.8034 23.94C95.5901 24.7533 94.6768 25.9 94.0634 27.38C93.4501 28.86 93.1434 30.6 93.1434 32.6C93.1434 34.6 93.4501 36.34 94.0634 37.82C94.6768 39.3 95.5901 40.4467 96.8034 41.26C98.0301 42.0733 99.5568 42.48 101.383 42.48C103.383 42.48 105.017 41.9933 106.283 41.02C107.55 40.0467 108.45 38.6933 108.983 36.96L114.463 38.48C113.543 41.28 111.957 43.5 109.703 45.14C107.463 46.78 104.69 47.6 101.383 47.6ZM118.067 47V18.2H136.867V23.28H123.507V29.44H134.467V34.52H123.507V41.92H136.867V47H118.067ZM140.861 47V18.2H146.381L158.901 37.4V18.2H164.421V47H158.901L146.381 27.8V47H140.861Z" fill="#214984"/>
<path d="M176.409 47V18.2H187.269C187.549 18.2 187.849 18.2133 188.169 18.24C188.503 18.2533 188.849 18.2933 189.209 18.36C190.649 18.5867 191.883 19.1067 192.909 19.92C193.949 20.72 194.743 21.7333 195.289 22.96C195.836 24.1733 196.109 25.5133 196.109 26.98C196.109 28.46 195.836 29.8133 195.289 31.04C194.743 32.2533 193.949 33.2667 192.909 34.08C191.883 34.88 190.649 35.3933 189.209 35.62C188.849 35.6733 188.503 35.7133 188.169 35.74C187.849 35.7667 187.549 35.78 187.269 35.78H178.709V47H176.409ZM178.709 33.52H187.229C187.469 33.52 187.743 33.5067 188.049 33.48C188.369 33.4533 188.689 33.4133 189.009 33.36C190.049 33.1467 190.916 32.7267 191.609 32.1C192.303 31.46 192.823 30.6933 193.169 29.8C193.516 28.9067 193.689 27.9667 193.689 26.98C193.689 25.9933 193.516 25.06 193.169 24.18C192.823 23.2867 192.303 22.5267 191.609 21.9C190.916 21.26 190.049 20.8333 189.009 20.62C188.689 20.5533 188.369 20.5067 188.049 20.48C187.743 20.4533 187.469 20.44 187.229 20.44H178.709V33.52ZM207.62 47.5C206.434 47.5 205.367 47.3267 204.42 46.98C203.487 46.6333 202.674 46.1467 201.98 45.52C201.287 44.88 200.714 44.1333 200.26 43.28C199.807 42.4133 199.467 41.4667 199.24 40.44C199.027 39.4133 198.92 38.34 198.92 37.22V25.4H201.24V36.64C201.24 38 201.374 39.2133 201.64 40.28C201.92 41.3467 202.334 42.2533 202.88 43C203.44 43.7467 204.134 44.3133 204.96 44.7C205.8 45.0867 206.787 45.28 207.92 45.28C209.094 45.28 210.107 45.08 210.96 44.68C211.827 44.2667 212.534 43.6933 213.08 42.96C213.64 42.2267 214.054 41.36 214.32 40.36C214.6 39.3467 214.74 38.2467 214.74 37.06L216.56 37.28C216.56 39.6133 216.16 41.54 215.36 43.06C214.574 44.5667 213.507 45.6867 212.16 46.42C210.814 47.14 209.3 47.5 207.62 47.5ZM214.96 47V42.14H214.74V25.4H217.06V47H214.96ZM222.241 47V17.6H224.541V47H222.241ZM237.732 47.56C235.238 47.56 233.178 47.0333 231.552 45.98C229.938 44.9267 228.938 43.46 228.552 41.58L230.912 41.18C231.245 42.46 232.032 43.48 233.272 44.24C234.512 45 236.032 45.38 237.832 45.38C239.618 45.38 241.038 45 242.092 44.24C243.145 43.48 243.672 42.44 243.672 41.12C243.672 40.4 243.505 39.8133 243.172 39.36C242.852 38.8933 242.212 38.4667 241.252 38.08C240.292 37.6933 238.865 37.24 236.972 36.72C234.972 36.1867 233.405 35.6533 232.272 35.12C231.152 34.5867 230.358 33.98 229.892 33.3C229.438 32.62 229.212 31.7867 229.212 30.8C229.212 29.6133 229.552 28.5733 230.232 27.68C230.912 26.7733 231.858 26.0667 233.072 25.56C234.298 25.0533 235.712 24.8 237.312 24.8C238.912 24.8 240.352 25.0667 241.632 25.6C242.912 26.12 243.945 26.8533 244.732 27.8C245.518 28.7333 245.972 29.82 246.092 31.06L243.732 31.5C243.505 30.1133 242.805 29.02 241.632 28.22C240.458 27.4067 238.992 26.9933 237.232 26.98C235.565 26.9533 234.205 27.2867 233.152 27.98C232.098 28.66 231.572 29.56 231.572 30.68C231.572 31.32 231.752 31.8667 232.112 32.32C232.485 32.76 233.138 33.1667 234.072 33.54C235.005 33.9133 236.325 34.3133 238.032 34.74C240.112 35.2733 241.732 35.82 242.892 36.38C244.065 36.94 244.892 37.6 245.372 38.36C245.852 39.1067 246.092 40.0333 246.092 41.14C246.092 43.14 245.345 44.7133 243.852 45.86C242.372 46.9933 240.332 47.56 237.732 47.56ZM258.633 47.6C256.566 47.6 254.779 47.14 253.273 46.22C251.766 45.2867 250.599 43.9733 249.773 42.28C248.946 40.5733 248.533 38.56 248.533 36.24C248.533 33.88 248.939 31.8467 249.753 30.14C250.579 28.42 251.739 27.1 253.233 26.18C254.739 25.26 256.526 24.8 258.593 24.8C260.686 24.8 262.473 25.28 263.953 26.24C265.446 27.1867 266.579 28.56 267.353 30.36C268.139 32.16 268.513 34.3267 268.473 36.86H266.073V36.06C266.006 33.1 265.339 30.8467 264.073 29.3C262.806 27.7533 260.993 26.98 258.633 26.98C256.193 26.98 254.306 27.7867 252.973 29.4C251.653 31 250.993 33.2667 250.993 36.2C250.993 39.1067 251.653 41.36 252.973 42.96C254.306 44.56 256.179 45.36 258.593 45.36C260.259 45.36 261.713 44.9733 262.953 44.2C264.206 43.4133 265.199 42.2933 265.933 40.84L268.013 41.76C267.146 43.6267 265.893 45.0667 264.253 46.08C262.613 47.0933 260.739 47.6 258.633 47.6ZM250.113 36.86V34.78H267.173V36.86H250.113Z" fill="#214984" fill-opacity="0.87"/>
<path d="M21 46.6667C20.2611 46.6667 19.6 46.4528 19.0167 46.025C18.4333 45.5973 18.0056 45.0528 17.7333 44.3917L12.3667 30.3334H2.33333V25.6667H15.6333L21 39.9L31.7333 11.6084C32.0056 10.9473 32.4333 10.4028 33.0167 9.97504C33.6 9.54726 34.2611 9.33337 35 9.33337C35.7389 9.33337 36.4 9.54726 36.9833 9.97504C37.5667 10.4028 37.9944 10.9473 38.2667 11.6084L43.6333 25.6667H53.6667V30.3334H40.3667L35 16.1L24.2667 44.3917C23.9944 45.0528 23.5667 45.5973 22.9833 46.025C22.4 46.4528 21.7389 46.6667 21 46.6667Z" fill="#214984"/>
</svg>
